HIERARCHY
ROOT Hips
{
	OFFSET 0.000000 0.000000 0.000000 
	CHANNELS 6 Xposition Yposition Zposition Zrotation Yrotation Xrotation
	JOINT LeftUpLeg
	{
		OFFSET 1.363060 -1.794630 0.839290 
		CHANNELS 3 Zrotation Yrotation Xrotation
		JOINT LeftLeg
		{
			OFFSET 2.448110 -6.726130 0.000000 
			CHANNELS 3 Zrotation Yrotation Xrotation
			JOINT LeftFoot
			{
				OFFSET 2.562200 -7.039590 0.000000 
				CHANNELS 3 Zrotation Yrotation Xrotation
				JOINT LeftToeBase
				{
					OFFSET 0.157640 -0.433110 2.322550 
					CHANNELS 3 Zrotation Yrotation Xrotation
					End Site
					{
						OFFSET 0.000000 0.000000 0.000000 
					}
				}
			}
		}
	}
	JOINT RightUpLeg
	{
		OFFSET -1.305520 -1.794630 0.839290 
		CHANNELS 3 Zrotation Yrotation Xrotation
		JOINT RightLeg
		{
			OFFSET -2.542530 -6.985550 0.000000 
			CHANNELS 3 Zrotation Yrotation Xrotation
			JOINT RightFoot
			{
				OFFSET -2.568260 -7.056230 0.000000 
				CHANNELS 3 Zrotation Yrotation Xrotation
				JOINT RightToeBase
				{
					OFFSET -0.164730 -0.452590 2.363150 
					CHANNELS 3 Zrotation Yrotation Xrotation
					End Site
					{
						OFFSET 0.000000 0.000000 0.000000 
					}
				}
			}
		}
	}
	JOINT Spine
	{
		OFFSET 0.028270 2.035590 -0.193380 
		CHANNELS 3 Zrotation Yrotation Xrotation
		JOINT Spine1
		{
			OFFSET 0.056720 2.048850 -0.042750 
			CHANNELS 3 Zrotation Yrotation Xrotation
			JOINT Neck1
			{
				OFFSET -0.054170 1.746240 0.172020 
				CHANNELS 3 Zrotation Yrotation Xrotation
				JOINT Head
				{
					OFFSET 0.104070 1.761360 -0.123970 
					CHANNELS 3 Zrotation Yrotation Xrotation
					End Site
					{
						OFFSET 0.000000 0.000000 0.000000 
					}
				}
			}
			JOINT LeftArm
			{
				OFFSET 3.362410 1.200890 -0.311210 
				CHANNELS 3 Zrotation Yrotation Xrotation
				JOINT LeftForeArm
				{
					OFFSET 4.983000 -0.000000 -0.000000 
					CHANNELS 3 Zrotation Yrotation Xrotation
					JOINT LeftHand
					{
						OFFSET 3.483560 -0.000000 -0.000000 
						CHANNELS 3 Zrotation Yrotation Xrotation
						JOINT LeftHandIndex1
						{
							OFFSET 0.715260 -0.000000 -0.000000 
							CHANNELS 3 Zrotation Yrotation Xrotation
							End Site
							{
								OFFSET 0.000000 0.000000 0.000000 
							}
						}
					}
				}
			}
			JOINT RightArm
			{
				OFFSET -3.136600 1.374050 -0.404650 
				CHANNELS 3 Zrotation Yrotation Xrotation
				JOINT RightForeArm
				{
					OFFSET -5.241900 -0.000000 -0.000000 
					CHANNELS 3 Zrotation Yrotation Xrotation
					JOINT RightHand
					{
						OFFSET -3.444170 -0.000000 -0.000000 
						CHANNELS 3 Zrotation Yrotation Xrotation
						JOINT RightHandIndex1
						{
							OFFSET -0.622530 -0.000000 -0.000000 
							CHANNELS 3 Zrotation Yrotation Xrotation
							End Site
							{
								OFFSET 0.000000 0.000000 0.000000 
							}
						}
					}
				}
			}
		}
	}
}
MOTION
Frames: 15
Frame Time: 0.041667
-0.755276 18.816883 8.173505 -10.014232 8.825998 22.046217 -2.698313 -46.021170 -5.491757 -2.872405 -1.383868 -1.252916 -15.219702 43.892835 -17.345830 0.018700 0.884100 2.429900 19.052544 34.517552 -9.473637 3.406242 -0.203412 0.006212 9.896126 -32.268783 -0.484379 -0.175500 -2.698500 7.440500 39.301228 -0.874754 7.887291 -8.840357 -3.053912 -24.465652 6.744388 -4.552649 16.799640 0.711600 -1.342600 7.414500 -101.953384 -49.124896 48.155597 30.810280 -32.832415 -12.093013 -2.267677 -2.927655 -49.168483 -7.125000 0.000000 0.000000 89.789267 58.629138 65.918107 -25.053093 30.741838 -8.883974 1.182125 2.183969 1.908152 7.125000 0.000000 0.000000 
-0.782160 18.811528 8.211416 -10.161153 8.879766 21.636581 -3.196571 -45.173917 -4.896994 -2.894352 -1.358542 -1.139191 -14.963173 43.352726 -16.626982 0.009900 0.642700 1.766200 19.823685 33.651181 -9.027718 3.418144 -0.252729 0.197817 9.630188 -31.601411 -0.141636 -0.147100 -2.471800 6.811300 39.048408 -0.598569 6.646267 -9.019365 -3.131018 -24.295511 6.606692 -4.523650 17.826484 0.673800 -1.291500 7.592400 -100.776770 -46.256377 46.980093 34.288536 -35.701845 -14.707052 -2.085032 -2.813491 -50.955166 -7.125000 0.000000 0.000000 87.703504 57.861660 68.677429 -26.758936 32.053930 -9.845248 1.188048 2.101284 1.558976 7.125000 0.000000 0.000000 
-0.810094 18.803861 8.250587 -10.291277 8.878291 21.253406 -3.678799 -44.423151 -4.261091 -2.919176 -1.338034 -1.035648 -14.724152 42.848942 -16.157296 0.005300 0.472200 1.297500 20.555661 32.817162 -8.583062 3.427285 -0.298140 0.386879 9.361309 -30.904034 0.148711 -0.124000 -2.270000 6.252400 38.653184 -0.275710 5.292580 -9.185642 -3.197994 -24.075336 6.143325 -4.580458 19.066577 0.517300 -1.292000 7.822700 -99.814819 -43.291287 45.647766 37.841424 -38.313900 -17.549112 -1.916755 -2.710196 -52.331370 -7.125000 0.000000 0.000000 85.807120 57.076074 71.647542 -28.387338 33.264428 -10.793050 1.191234 2.021641 0.661592 7.125000 0.000000 0.000000 
-0.839078 18.793780 8.290808 -10.394548 8.810666 20.903053 -4.171183 -43.765932 -3.562530 -2.948404 -1.327519 -0.953991 -14.509521 42.398196 -15.941567 0.003500 0.380900 1.046600 21.241684 31.996091 -8.153359 3.433702 -0.343914 0.582990 9.079447 -30.147493 0.392709 -0.107300 -2.112000 5.815300 38.116550 0.132880 3.754996 -9.342095 -3.239350 -23.781334 5.529121 -4.713475 20.469020 0.303500 -1.336000 8.088100 -99.062561 -40.229743 44.241103 41.503462 -40.690281 -20.636474 -1.764240 -2.640243 -53.386564 -7.125000 0.000000 0.000000 84.289931 56.156371 74.517653 -29.943327 34.418625 -11.732902 1.179264 1.941441 -0.225208 7.125000 0.000000 0.000000 
-0.869008 18.781703 8.331344 -10.452681 8.679798 20.589804 -4.696801 -43.177208 -2.809640 -2.981480 -1.324447 -0.894815 -14.313767 41.995498 -15.919310 0.002900 0.349400 0.959900 21.868527 31.182754 -7.743630 3.437462 -0.393564 0.794911 8.787535 -29.335173 0.578990 -0.096300 -2.001100 5.508800 37.413136 0.640963 1.980455 -9.459240 -3.244273 -23.399014 4.797066 -4.925842 22.136230 0.050200 -1.425200 8.428700 -98.513649 -37.066471 42.795419 45.326413 -42.859981 -24.004182 -1.631668 -2.607276 -54.174263 -7.125000 0.000000 0.000000 83.207276 55.105933 77.254092 -31.372216 35.485761 -12.631722 1.150013 1.866473 -0.839190 7.125000 0.000000 0.000000 
-0.899988 18.767631 8.371671 -10.457990 8.501191 20.313291 -5.261910 -42.605820 -2.037763 -3.016678 -1.322330 -0.847434 -14.120721 41.610637 -15.993316 0.002900 0.346500 0.952000 22.427115 30.385439 -7.358282 3.438595 -0.451381 1.031106 8.494473 -28.490454 0.691510 -0.088800 -1.922000 5.290200 36.588930 1.249306 -0.050971 -9.601681 -3.210932 -22.893291 4.698327 -5.172463 23.548514 -0.013600 -1.500800 8.665600 -98.159176 -33.826071 41.310590 49.353294 -44.845601 -27.684615 -1.518215 -2.608103 -54.710294 -7.125000 0.000000 0.000000 82.592627 53.957514 79.868672 -32.614536 36.423671 -13.442607 1.108172 1.796009 -1.020372 7.125000 0.000000 0.000000 
-0.932228 18.751879 8.410737 -10.391373 8.271508 20.068805 -5.863326 -41.975477 -1.300852 -3.050509 -1.309249 -0.797201 -13.909840 41.201647 -16.028689 0.002600 0.327300 0.899400 22.914468 29.622689 -6.980723 3.437923 -0.516984 1.294450 8.213345 -27.644784 0.701836 -0.084200 -1.872000 5.152100 35.503835 1.939837 -2.351084 -9.712656 -3.132364 -22.285303 4.994294 -5.504578 25.042269 0.034400 -1.587000 8.917100 -97.962660 -30.517792 39.767395 53.581584 -46.653656 -31.672588 -1.418968 -2.626131 -54.987417 -7.125000 0.000000 0.000000 82.429891 52.723672 82.395358 -33.697896 37.266156 -14.186857 1.051013 1.744673 -0.697974 7.125000 0.000000 0.000000 
-0.965938 18.734446 8.447597 -10.244552 7.999626 19.853935 -6.477607 -41.247235 -0.643630 -3.079634 -1.274799 -0.727834 -13.667188 40.735118 -15.945827 0.001700 0.269700 0.741100 23.341424 28.909395 -6.594374 3.436524 -0.587508 1.580491 7.954858 -26.829061 0.590076 -0.082800 -1.855600 5.106700 34.020081 2.699354 -4.967235 -9.797531 -3.002628 -21.581057 5.905379 -5.971333 26.496877 0.246400 -1.686600 9.145800 -97.868221 -27.179812 38.131967 57.953071 -48.290546 -35.909535 -1.330894 -2.650867 -54.985423 -7.125000 0.000000 0.000000 82.658342 51.400162 84.939624 -34.633409 38.014614 -14.861272 0.987045 1.705608 -0.313973 7.125000 0.000000 0.000000 
-1.001328 18.715228 8.481517 -10.014368 7.689019 19.662245 -7.080114 -40.428107 -0.084832 -3.101347 -1.214216 -0.630823 -13.393136 40.205227 -15.733086 0.000700 0.172100 0.472700 23.724457 28.242241 -6.191432 3.434939 -0.660451 1.885405 7.720517 -26.054909 0.369717 -0.083200 -1.860600 5.120500 32.003077 3.471218 -7.875080 -9.809998 -2.814997 -20.784199 7.262800 -6.551316 27.788239 0.560800 -1.799700 9.315600 -97.823867 -23.883264 36.369761 62.414552 -49.786522 -40.328999 -1.251358 -2.682359 -54.715348 -7.125000 0.000000 0.000000 83.201912 50.032294 87.496757 -35.456510 38.686013 -15.481689 0.918738 1.674862 0.090272 7.125000 0.000000 0.000000 
-1.038504 18.694330 8.511972 -9.698790 7.343869 19.484119 -7.653404 -39.542542 0.373284 -3.114502 -1.128602 -0.508252 -13.096100 39.624226 -15.398019 0.000000 0.031800 0.087500 24.075111 27.621764 -5.763744 3.433821 -0.730930 2.200967 7.510788 -25.330413 0.058032 -0.085600 -1.887000 5.193500 29.348875 4.164098 -10.988477 -9.689352 -2.566254 -19.915506 8.945644 -7.268592 28.960236 0.935000 -1.943100 9.460600 -97.786213 -20.697511 34.463579 66.971186 -51.194030 -44.901420 -1.185537 -2.715873 -54.201310 -7.125000 0.000000 0.000000 83.980448 48.669330 90.038695 -36.213165 39.299927 -16.072288 0.848945 1.647223 0.505574 7.125000 0.000000 0.000000 
-1.077465 18.671541 8.538856 -9.310118 6.971872 19.312387 -8.181639 -38.642097 0.745535 -3.119461 -1.025473 -0.370282 -12.793830 39.026149 -15.002946 0.000400 -0.134400 -0.369400 24.401150 27.050771 -5.317415 3.433325 -0.794940 2.516191 7.323660 -24.660223 -0.310349 -0.089200 -1.926800 5.303300 26.090494 4.681295 -14.162193 -9.382505 -2.263632 -19.002710 10.709795 -8.080750 30.025958 1.306000 -2.117000 9.605100 -97.732073 -17.685416 32.400856 71.700386 -52.572622 -49.647263 -1.138307 -2.741189 -53.425512 -7.125000 0.000000 0.000000 84.923399 47.374781 92.559869 -36.954793 39.879608 -16.663204 0.781848 1.617922 0.899488 7.125000 0.000000 0.000000 
-1.118001 18.647493 8.561960 -8.873914 6.591635 19.131844 -8.661827 -37.793752 1.067790 -3.118808 -0.916446 -0.229286 -12.509029 38.458272 -14.623698 0.002300 -0.308700 -0.848300 24.708310 26.535218 -4.858693 3.433406 -0.849579 2.818303 7.158850 -24.055325 -0.696424 -0.093100 -1.968200 5.417800 22.438226 4.957504 -17.178680 -8.895848 -1.926375 -18.088588 12.500347 -8.980233 30.978736 1.670200 -2.324700 9.770200 -97.651623 -14.907391 30.173582 76.736948 -53.968250 -54.617319 -1.109444 -2.744995 -52.368860 -7.125000 0.000000 0.000000 85.977980 46.230573 95.063594 -37.734619 40.451432 -17.288144 0.720156 1.583554 1.261000 7.125000 0.000000 0.000000 
-1.159902 18.623444 8.581598 -8.421231 6.235591 18.918897 -9.099944 -37.054106 1.381601 -3.115467 -0.812699 -0.095971 -12.258706 37.956671 -14.307421 0.005500 -0.479500 -1.317500 25.000436 26.080186 -4.381551 3.434229 -0.889182 3.087263 7.019749 -23.533223 -1.070431 -0.098000 -2.019100 5.558400 18.669102 4.981464 -19.806595 -8.263641 -1.582165 -17.243145 14.005762 -9.932039 32.006104 1.955300 -2.570800 10.027600 -97.532499 -12.399663 27.801154 82.241273 -55.379542 -59.849654 -1.098801 -2.708519 -51.060403 -7.125000 0.000000 0.000000 87.118750 45.298903 97.546001 -38.599483 41.045620 -17.980623 0.664211 1.541624 1.627707 7.125000 0.000000 0.000000 
-1.202539 18.600445 8.598085 -7.992086 5.938235 18.665574 -9.486390 -36.439615 1.703221 -3.111723 -0.721521 0.024340 -12.044836 37.524323 -14.079362 0.009500 -0.628400 -1.726800 25.289148 25.674380 -3.892250 3.435742 -0.910886 3.306771 6.903019 -23.093808 -1.394409 -0.102600 -2.065300 5.686100 15.082992 4.827653 -21.945344 -7.614128 -1.248588 -16.469145 15.660701 -10.976921 32.872916 2.296700 -2.850900 10.318500 -97.357280 -10.182953 25.357428 88.363773 -56.710930 -65.336326 -1.104448 -2.608885 -49.568743 -7.125000 0.000000 0.000000 88.340444 44.625963 100.005298 -39.592152 41.686585 -18.777047 0.610052 1.493598 2.046723 7.125000 0.000000 0.000000 
-1.245701 18.580282 8.611422 -7.654351 5.740105 18.374000 -9.786102 -35.908971 2.011600 -3.107772 -0.643674 0.138920 -11.858908 37.133997 -13.893509 0.014200 -0.768500 -2.112000 25.597479 25.298195 -3.410959 3.437009 -0.917385 3.470433 6.797606 -22.714262 -1.647607 -0.106200 -2.101800 5.787000 12.107477 4.651141 -23.630981 -7.037852 -0.942272 -15.774082 17.090808 -11.939486 33.490380 2.603100 -3.127200 10.579700 -97.207937 -8.313368 22.976474 94.937126 -57.702038 -70.824124 -1.119708 -2.436672 -47.956653 -7.125000 0.000000 0.000000 89.599802 44.204946 102.405191 -40.769880 42.403819 -19.722919 0.551989 1.440011 2.557250 7.125000 0.000000 0.000000 
